<svg xmlns="http://www.w3.org/2000/svg" width="38" height="25" fill="none" viewBox="0 0 38 25">
  <path fill="#c49a6c" d="M30.32.188c-.937 2.343-3.203 3.742-7.789 3.43a62 62 0 0 1-3.25-.524C9.977.188.825.187.825 6c2.616-2.906 9.198-2.406 17.581-.312 9.125 2.28 18.89 3.218 18.89-4.047-1.437 1.507-4.171 2.234-7.546 2.375.781-.813.977-2.086.57-3.828m-19.836 6.46C4.957 6.625.825 7.906.825 11.813c2.616-2.907 9.198-2.72 17.581-.626 9.125 2.282 18.89 3.532 18.89-3.734-2.765 2.906-10.171 3.094-18.015.625-2.945-.93-6.093-1.422-8.797-1.43m-1.867 5.438C4.052 12.07.825 13.305.825 17.625c2.616-2.906 9.558-3.46 17.581-1.453 9.453 2.36 18.89 2.906 18.89-2.906-2.765 2.906-10.32 1.765-18.015.312-3.781-.586-7.539-1.492-10.664-1.492m0 5.805C4.052 17.883.825 19.125.825 23.438c1.487-1.649 4.337-2.368 8.01-2.407-.812.813-1.007 2.102-.6 3.86 1.085-2.72 4.062-4.047 10.179-2.907 9.578 1.782 18.883 2.907 18.883-2.906-2.766 2.906-10.32 1.453-18.016 0-3.781-.594-7.539-1.18-10.664-1.187"/>
</svg>