<svg xmlns="http://www.w3.org/2000/svg" width="40" height="40" fill="none" viewBox="0 0 40 40">
<path fill="#c49a6c" d="M24.943 28.521a1.391 1.391 0 0 0 2.69.653l.442-1.265zM33.138 10.728a2.558 2.558 0 1 0 0-5.116 2.558 2.558 0 0 0 0 5.116M6.786 16.648a2.558 2.558 0 1 0 0-5.116 2.558 2.558 0 0 0 0 5.116"/>
<path fill="#c49a6c" d="M39.974 22.49a1.39 1.39 0 0 0-1.632-1.099l-1.706.333c.544-.374.84-.974.84-1.591l.019-6.584a1.943 1.943 0 0 0-1.955-1.946l-1.785.013a1.94 1.94 0 0 0-1.927 1.971l.013.848 2.498-1.744-2.971 3.328-5.215-.504a1.16 1.16 0 0 0-.224 2.307l5.8.561c.37.036.732-.107.977-.382l2.9-3.25-1.968 4.018c-.2.408-.365.858-.85.966l-4.31.752c-.907.158-1.078.922-1.244 1.395l-.63 1.802-12.611 2.463c.126 1.08-.469 1.707-.784 2.102l-.833 1.048 6.464-1.262v4.006h-2.562a1.16 1.16 0 0 0 0 2.318h7.444a1.16 1.16 0 0 0 0-2.318h-2.563v-4.46l6.99-1.364v-.967c0-.416-.09-1.21.705-1.712l3.872-2.426-3.134 3.158c-.258.26-.404.613-.404.98v6.532a1.391 1.391 0 1 0 2.782 0v-5.96l2.73-2.75-1.305 2.12 5.48-1.07a1.39 1.39 0 0 0 1.099-1.632M14.259 22.666a1.16 1.16 0 0 0-1.246-1.065l-4.448.349-2.98-3.339 2.498 1.744.014-.847a1.94 1.94 0 0 0-1.928-1.971c-1.969-.014-1.924-.028-2.196.029-.688.09-1.547.836-1.544 1.904l.018 6.583C2.45 27.085 3.28 28 4.55 27.981l-3.39.673c-.73.142-1.248.823-1.146 1.56.11.798.865 1.33 1.645 1.177l2.976-.582 1.955-2.456-1.542-.287 3.27-.01-3.219 4.046c-.478.601-.409 1.49.188 1.975a1.39 1.39 0 0 0 1.966-.214l5.044-6.34c.714-.898.092-2.258-1.088-2.258h-.005l-6.164.018 1.436-.276s-.313-.57-2.157-4.335l2.9 3.25c.241.27.594.412.956.383l5.02-.393a1.16 1.16 0 0 0 1.065-1.246"/>
</svg>
