<svg xmlns="http://www.w3.org/2000/svg" width="20" height="20" fill="none" viewBox="0 0 20 20">
  <g clip-path="url(#a)">
  <path fill="#4a5157" fill-rule="evenodd" d="M9.998 0h.005C15.516 0 20 4.486 20 10s-4.484 10-9.997 10A9.9 9.9 0 0 1 4.5 18.348L.657 19.576l1.247-3.715A9.93 9.93 0 0 1 0 10C0 4.485 4.484 0 9.998 0m3.86 15.533c.765-.165 1.722-.73 1.963-1.412s.242-1.264.172-1.387c-.057-.098-.19-.163-.39-.259l-.17-.082c-.293-.147-1.722-.853-1.992-.947-.265-.1-.517-.065-.717.218l-.114.16c-.241.339-.474.666-.667.875-.177.187-.464.211-.705.111l-.09-.037c-.383-.154-1.23-.496-2.255-1.41-.865-.77-1.453-1.728-1.623-2.016-.167-.288-.023-.457.11-.613l.008-.009c.085-.106.169-.195.252-.283q.09-.094.183-.2l.026-.03c.131-.151.21-.24.297-.428.1-.194.03-.394-.042-.542-.05-.103-.352-.838-.612-1.468l-.287-.695c-.194-.464-.341-.482-.635-.494l-.027-.001q-.139-.009-.308-.01c-.382 0-.781.112-1.022.358l-.027.027c-.308.314-.996 1.013-.996 2.407 0 1.397.99 2.748 1.174 2.998l.014.018.062.089c.374.542 2.197 3.182 4.916 4.309 2.298.953 2.98.864 3.503.753" clip-rule="evenodd"/>
  </g>
  <defs>
  <clipPath id="a">
  <path fill="#fff" d="M0 0h20v20H0z"/>
  </clipPath>
  </defs>
</svg>