<svg xmlns="http://www.w3.org/2000/svg" width="24" height="14" fill="none" viewBox="0 0 24 14">
  <mask id="a" width="24" height="14" x="0" y="0" maskUnits="userSpaceOnUse" style="mask-type:luminance">
  <path fill="#fff" fill-rule="evenodd" d="M0 0h24v14H0z" clip-rule="evenodd"/>
  </mask>
  <g mask="url(#a)">
  <path fill="#4a5157" fill-rule="evenodd" d="M7.929.973c.172-.388.446-.629.802-.718a7.4 7.4 0 0 1 1.32-.211c1.04-.067 2.082-.084 3.11.143.57.126.855.437.864 1.04.017.98-.018 1.96-.021 2.94-.002.59.014 1.18.022 1.77q0 .03.005.06c.06.341.136.709.483.834.331.12.566-.16.77-.384.953-1.048 1.645-2.275 2.253-3.555.251-.528.465-1.076.688-1.619.201-.488.424-.65.933-.654l3.798-.027c1.012-.007 1.26.356.866 1.315-.455 1.107-1.167 2.05-1.858 3.005-.482.667-.987 1.316-1.459 1.99-.648.927-.61 1.259.17 2.073.826.862 1.665 1.713 2.464 2.6.286.318.5.715.701 1.1.294.56.108.995-.486 1.185a2 2 0 0 1-.573.09q-1.65.035-3.301.047c-.671.005-1.23-.307-1.699-.76-.495-.48-.938-1.014-1.412-1.518-.236-.25-.472-.508-.738-.724-.526-.425-1.013-.327-1.264.314a5.1 5.1 0 0 0-.321 1.478c-.066.916-.324 1.201-1.22 1.21-1.072.01-2.138.01-3.18-.32-1.831-.579-3.282-1.709-4.483-3.21C3.421 8.289 2.105 5.842.893 3.329a47 47 0 0 1-.79-1.737c-.246-.57-.05-.905.554-.921C1.747.642 2.838.636 3.929.624c.597-.006.988.254 1.226.853.644 1.625 1.454 3.162 2.487 4.566.185.252.41.487.654.679.36.283.71.18.857-.259.12-.354.217-.735.225-1.107.02-.968.042-1.943-.046-2.905-.088-.958-.392-1.215-1.403-1.478" clip-rule="evenodd"/>
  </g>
</svg>
