<svg xmlns="http://www.w3.org/2000/svg" width="20" height="20" fill="none" viewBox="0 0 20 20">
  <g clip-path="url(#a)">
  <path fill="#4a5157" fill-rule="evenodd" d="M10 20c5.523 0 10-4.477 10-10S15.523 0 10 0 0 4.477 0 10s4.477 10 10 10M5.688 5.487V8.89q.777-.927 1.858-.928.555 0 1.001.211.447.211.673.536.227.329.309.725.083.396.083 1.231v3.637H8.003v-3.276q0-.975-.09-1.237a.8.8 0 0 0-.323-.416 1 1 0 0 0-.581-.156 1.3 1.3 0 0 0-.714.2 1.14 1.14 0 0 0-.462.598q-.147.4-.146 1.182l-.002 3.106H4.079V5.487zm6.336 3.402V5.487h-1.608v8.815h1.607v-3.106q0-.782.145-1.182.147-.4.461-.599t.714-.199q.35 0 .581.156.233.152.324.416.092.262.092 1.237v3.276h1.607v-3.637q0-.836-.083-1.23a1.9 1.9 0 0 0-.309-.726q-.225-.326-.671-.536a2.3 2.3 0 0 0-1.002-.21q-1.08 0-1.858.927" clip-rule="evenodd"/>
  </g>
  <defs>
  <clipPath id="a">
  <path fill="#fff" d="M0 0h20v20H0z"/>
  </clipPath>
  </defs>
</svg>
