<svg xmlns="http://www.w3.org/2000/svg" width="22" height="16" fill="none" viewBox="0 0 22 16">
  <path fill="#4a5157" fill-rule="evenodd" d="M8.382 3.201c1.044.723 2.123 1.515 3.16 2.278 1.047.772 2.11 1.514 3.126 2.26-1.823 1.19-3.653 2.336-5.5 3.508-.26.163-.506.362-.786.488zM.006 4.43v7.207c0 .848-.042 1.65.156 2.243a3.1 3.1 0 0 0 .973 1.407c.436.355.941.614 1.685.676.7.057 1.52.018 2.327.018H16.87c.788 0 1.586.053 2.345-.018 1.341-.125 2.265-.99 2.622-2.118.194-.611.156-1.413.156-2.243V4.394c0-.855.056-1.59-.156-2.243a3.07 3.07 0 0 0-.954-1.424 2.82 2.82 0 0 0-1.668-.694c-.737-.061-1.56-.018-2.327-.018H5.165c-.775 0-1.669-.042-2.38.018a3 3 0 0 0-2.64 2.136c-.19.634-.139 1.447-.139 2.26" clip-rule="evenodd"/>
</svg>