<svg xmlns="http://www.w3.org/2000/svg" width="24" height="24" fill="none" viewBox="0 0 24 24">
  <path fill="#000" d="m22.35 17.053-2.804-2.804a1.98 1.98 0 0 0-2.752-.032l-1.566 1.495c-2.41-1.353-5.586-4.53-6.94-6.94l1.495-1.566a1.98 1.98 0 0 0-.032-2.751L6.947 1.65a1.92 1.92 0 0 0-1.47-.575 1.92 1.92 0 0 0-1.42.69L1.21 5.106a.56.56 0 0 0-.134.357c-.024 1.6.579 3.471 1.791 5.56 1.086 1.87 2.612 3.811 4.413 5.612 3.052 3.051 7.576 6.292 11.171 6.291h.088a.56.56 0 0 0 .356-.135l3.34-2.848c.43-.366.668-.857.69-1.42a1.92 1.92 0 0 0-.575-1.47m-.845 2.034-3.181 2.712c-2.686-.073-6.677-2.387-10.25-5.96-3.576-3.576-5.806-7.444-5.873-10.162l2.712-3.181a.8.8 0 0 1 .609-.296.8.8 0 0 1 .63.246L8.956 5.25c.321.322.327.85.014 1.18L7.194 8.29a.56.56 0 0 0-.095.64c1.394 2.778 5.193 6.578 7.971 7.972a.56.56 0 0 0 .64-.096l1.86-1.775a.85.85 0 0 1 1.18.013l2.804 2.804a.8.8 0 0 1 .246.63.8.8 0 0 1-.295.609"/>
</svg>
