<svg xmlns="http://www.w3.org/2000/svg" width="22" height="18" fill="none" viewBox="0 0 22 18">
  <mask id="a" width="22" height="18" x="0" y="0" maskUnits="userSpaceOnUse" style="mask-type:luminance">
  <path fill="#fff" fill-rule="evenodd" d="M0 0h22v18H0z" clip-rule="evenodd"/>
  </mask>
  <g mask="url(#a)"><path fill="#4a5157" fill-rule="evenodd" d="M22 1.446c-.116.504-.236 1.006-.346 1.51l-2.13 9.788c-.305 1.406-.608 2.811-.921 4.215a2 2 0 0 1-.202.529c-.24.441-.633.608-1.118.459a2.2 2.2 0 0 1-.63-.3c-1.581-1.125-3.154-2.261-4.73-3.394-.057-.041-.115-.08-.183-.127-.052.044-.102.081-.147.123q-1.22 1.141-2.439 2.285c-.242.227-.517.364-.879.343l.088-1.29.197-2.668c.01-.14.047-.284.029-.42-.071-.513.223-.81.581-1.124 2.917-2.553 5.82-5.121 8.726-7.685.043-.038.098-.07.123-.116.046-.086.074-.182.11-.273-.098-.027-.207-.094-.293-.073a1.8 1.8 0 0 0-.507.21q-5.683 3.485-11.36 6.98c-.107.065-.198.1-.334.058C4.029 9.98 2.419 9.492.813 8.994a2 2 0 0 1-.554-.265c-.312-.216-.35-.532-.07-.787.204-.187.452-.353.711-.454 1.353-.528 2.715-1.033 4.075-1.544Q12.722 3.029 20.472.119c.165-.062.344-.103.52-.116.464-.035.809.212.95.656.017.052.039.103.058.154z" clip-rule="evenodd"/>
  </g>
</svg>