<svg xmlns="http://www.w3.org/2000/svg" width="110" height="146" fill="none" viewBox="0 0 110 146">
  <path fill="#c49a6c" d="M55.01 146C24.675 146 0 121.541 0 91.472V0h110v91.472C110 121.54 85.325 146 54.99 146M1.791 1.775v89.697c0 29.087 23.875 52.734 53.2 52.734 29.324 0 53.199-23.666 53.199-52.734V1.775z"/>
  <path fill="#c49a6c" d="M46.378 32.657a11.5 11.5 0 0 0-2.648-3.74c-1.105-1.02-2.44-1.832-3.906-2.399-1.468-.566-3.087-.85-4.764-.85h-3.334v-3.286h-1.868v3.287h-3.315c-1.677 0-3.296.283-4.783.85-1.486.566-2.82 1.378-3.925 2.398a11 11 0 0 0-2.648 3.74c-.648 1.454-.972 3.079-.972 4.835 0 1.87.305 3.55.934 5.005a10.7 10.7 0 0 0 2.572 3.74c1.105 1.02 2.42 1.794 3.925 2.323 1.486.51 3.144.774 4.897.774h3.315v3.287h1.868v-3.287h3.334c1.753 0 3.41-.264 4.897-.774 1.505-.529 2.84-1.303 3.925-2.323 1.105-1.02 1.963-2.285 2.573-3.74.61-1.454.914-3.135.914-5.005 0-1.756-.324-3.38-.972-4.835M26.543 47.559c-1.562 0-2.992-.227-4.306-.68-1.277-.453-2.382-1.095-3.297-1.945a8.8 8.8 0 0 1-2.153-3.136c-.514-1.246-.781-2.7-.781-4.325 0-1.51.267-2.89.82-4.117.552-1.228 1.295-2.286 2.229-3.155.933-.868 2.058-1.548 3.334-2.04 1.277-.49 2.668-.736 4.135-.736h3.315v20.096h-3.315zm18.254-5.742c-.515 1.228-1.239 2.286-2.134 3.117-.915.85-2.02 1.492-3.297 1.945-1.295.453-2.743.68-4.306.68h-3.334V27.463h3.334c1.467 0 2.858.245 4.135.736a10.5 10.5 0 0 1 3.334 2.04 9.4 9.4 0 0 1 2.23 3.155c.533 1.227.82 2.606.82 4.117 0 1.624-.268 3.079-.782 4.325M87.23 83.615v11.257H71.244V83.615h-1.81v28.275h1.81V96.647H87.23v15.243h1.791V83.615z"/>
  <path fill="#c49a6c" d="M5.64 5.59v85.882c0 26.971 22.142 48.918 49.351 48.918 27.21 0 49.35-21.947 49.35-48.918V5.59zm50.247 43.045c17.91-.567 22.96 8.82 24.027 11.502-3.449 3.022-4.973 6.177-5.507 7.499h-3.81c-8.937 0-14.73-5.723-14.73-14.6v-4.401zM7.45 7.385h46.664v45.67c0 8.858-5.793 14.6-14.73 14.6H7.452zm46.664 131.211c-18.083-.34-33.726-10.728-41.482-25.763 2.135.378 4.06.907 5.793 1.398 2.382.68 4.535 1.284 6.612 1.284 2.458 0 4.802-.85 7.336-3.437 4.63-4.779 9.698-3.173 15.052-1.473 2.192.698 4.44 1.397 6.689 1.643v26.348m0-28.124c-1.982-.245-4.002-.887-6.136-1.548-5.392-1.7-11.49-3.646-16.901 1.926-3.906 4.023-7.183 3.098-12.157 1.681-2.095-.604-4.477-1.246-7.24-1.643a45.4 45.4 0 0 1-2.801-7.914c3.753.189 6.802 1.058 9.546 1.851 2.382.68 4.535 1.284 6.612 1.284 2.458 0 4.802-.85 7.336-3.437 4.63-4.779 9.698-3.173 15.052-1.473 2.192.698 4.44 1.397 6.689 1.643zm0-9.424c-1.982-.246-4.002-.888-6.136-1.55-5.392-1.7-11.49-3.645-16.901 1.946-3.906 4.023-7.183 3.098-12.157 1.681-2.953-.85-6.268-1.775-10.46-1.926-.477-2.267-.8-4.59-.934-6.951 4.382.038 7.831 1.02 10.899 1.87 2.382.68 4.535 1.284 6.612 1.284 2.458 0 4.802-.85 7.336-3.437 4.63-4.779 9.698-3.173 15.052-1.474 2.192.7 4.44 1.398 6.689 1.644zm0-8.708c-1.982-.245-4.002-.887-6.136-1.548-5.392-1.7-11.49-3.646-16.901 1.926-3.906 4.023-7.183 3.098-12.157 1.681-3.182-.906-6.802-1.926-11.451-1.945 0-.321-.02-.661-.02-.982V69.41h31.936c8.936 0 14.729 5.723 14.729 14.6zm-8.803-23.817c4.725-1.53 8.155-4.93 9.698-9.613 1.544 4.684 4.973 8.083 9.699 9.613-4.726 1.53-8.156 4.93-9.699 9.614-1.543-4.684-4.973-8.084-9.698-9.614m57.257 22.949c0 25.687-20.845 46.633-46.663 47.124V84.011c0-8.877 5.773-14.6 14.729-14.6h31.934zm0-23.836H76.351c1.448-3.362 7.298-12.995 26.218-12.617zm0-14.393c-10.232-.189-16.92 2.531-21.188 5.723-.495-1.095-1.448-2.738-3.01-4.457v-9.765c7.469-.416 13.414-6.535 13.414-14.052v-10.18h-.896a14.24 14.24 0 0 0-12.518 7.441V20.87c0-3.91-3.22-7.101-7.165-7.101h-.895v6.081c0 3.608 2.743 6.611 6.268 7.045v25.876c-3.525-3.003-9.889-6.252-20.654-5.93V7.384h46.663v45.877zM78.466 42.97v-8.367c0-6.479 5.087-11.824 11.528-12.277v8.367c0 6.478-5.088 11.823-11.528 12.277M76.56 20.87v4.231c-2.534-.415-4.477-2.606-4.477-5.25V15.62c2.534.434 4.477 2.625 4.477 5.25"/>
</svg>
