<svg xmlns="http://www.w3.org/2000/svg" width="114" height="26" viewBox="0 0 114 26" fill="none"><path d="M96.1509 25.6467L103.251 17.2368L96.4114 7.57507H100.125C101.949 7.57507 101.688 8.31335 104.847 12.7751L105.922 14.3158L110.222 7.79976C110.352 7.60717 110.58 7.54297 110.775 7.54297H112.99L106.541 15.1825L114 25.6467H110.515C108.202 25.6788 108.626 24.7479 105.564 20.4788L103.87 18.1035L98.952 25.3578C98.8217 25.5504 98.6263 25.6146 98.3657 25.6146H96.1509V25.6467Z" fill="#1D252D"></path><path d="M88.6921 26C86.1841 26 83.5783 25.2939 81.9498 23.3038C80.4189 21.442 79.8652 19.1309 79.8001 16.7877C79.7675 13.8667 80.5166 11.5235 82.0801 9.75808C83.6435 7.99265 85.7932 7.12598 88.5292 7.12598C89.8321 7.12598 91.0046 7.31857 92.0143 7.70375C93.0241 8.08894 93.8058 8.60252 94.4246 9.2766C95.0435 9.95067 95.4995 10.721 95.7926 11.5877C96.0858 12.4544 96.2486 13.4173 96.2812 14.4445C96.2812 14.9902 96.2486 15.5038 96.1509 15.9531C96.1509 16.0173 96.0858 16.0494 96.0532 16.0494H84.5881C84.6532 18.9704 85.1092 21.0568 85.9561 22.3729C86.8029 23.6889 88.2035 24.3309 90.1903 24.3309C92.2423 24.3309 93.8383 23.7531 95.4018 22.5655C95.6623 22.7902 95.9555 23.4001 95.4018 23.8815C93.9686 25.1655 91.1675 26 88.6921 26ZM84.5555 15.1828L91.9818 14.6371C92.0143 12.1976 91.9166 8.18523 88.6269 8.18523C85.1743 8.18523 84.6532 12.5828 84.5555 15.1828Z" fill="#1D252D"></path><path d="M76.9338 23.5607V12.9681C76.9338 9.34092 75.5332 7.1582 71.9178 7.1582C69.3772 7.1582 66.9669 8.34585 65.2407 10.1113C65.2407 8.69894 65.0127 7.54338 63.6121 7.54338H60.6807L60.8435 9.59771V23.5286L60.6807 25.615H65.4361L65.2732 23.5286V11.0742C66.6412 10.0471 67.9115 9.53351 69.7355 9.53351C72.0481 9.53351 72.5041 11.652 72.5041 13.9952V23.1755C72.5041 24.7162 72.8624 25.615 74.1652 25.615H77.0967L76.9338 23.5607Z" fill="#1D252D"></path><path d="M56.088 2.31112C56.088 3.59507 55.0131 4.62223 53.7103 4.62223C52.4074 4.62223 51.3326 3.59507 51.3326 2.31112C51.3326 1.02716 52.4074 0 53.7103 0C55.0131 0 56.088 1.02716 56.088 2.31112Z" fill="#1D252D"></path><path d="M51.4956 7.54283L51.6585 9.59716V23.528L51.4956 25.6144H56.251L56.0882 23.528V9.95024C56.0882 8.56999 55.8276 7.51074 54.427 7.51074H51.4956V7.54283Z" fill="#1D252D"></path><path d="M47.0005 23.5607V12.9681C47.0005 9.30882 45.5999 7.1582 41.9845 7.1582C38.9553 7.1582 36.9033 8.66685 35.2748 10.3681C34.6885 8.34586 33.2553 7.1582 30.5193 7.1582C27.9462 7.1582 25.8616 8.34585 24.1679 10.1434V10.1113C24.1679 8.69894 23.9399 7.54338 22.5393 7.54338H19.6079L19.7708 9.59771V23.5286L19.6079 25.615H24.3633L24.2005 23.5286V11.0742C25.5359 9.98289 27.1319 9.53351 28.4022 9.53351C30.9102 9.53351 31.1708 12.0693 31.1708 13.9952V23.5286L31.0079 25.615H35.7633L35.6005 23.5286V11.0742C36.7405 10.1113 38.3365 9.53351 39.8348 9.53351C42.4405 9.53351 42.6033 12.3261 42.6033 13.9952V23.1755C42.6033 24.9088 43.0919 25.615 44.2645 25.615H47.1959L47.0005 23.5607Z" fill="#1D252D"></path><path d="M7.5892 26C5.40692 26 2.18235 25.3901 0.228064 24.2988C0.58635 23.4963 1.27035 22.8864 2.24749 23.4C4.00635 24.2988 5.7652 24.716 7.71949 24.716C10.5206 24.716 12.5726 23.1753 12.4423 20.3827C12.1492 14.5407 -0.0325062 13.6741 6.52001e-05 6.64445C0.0326366 1.47655 4.75549 0 9.28292 0C11.4652 0 13.6149 0.417292 15.7321 1.25186C15.3738 2.08643 14.7549 2.79259 13.6801 2.27901C12.1818 1.57284 10.6835 1.25186 9.08749 1.25186C6.31892 1.25186 4.75549 2.7284 4.75549 4.91112C4.72292 10.4963 17.1001 11.3309 17.3281 18.5852C17.4583 23.8815 12.9635 26 7.5892 26Z" fill="#1D252D"></path></svg>