<svg xmlns="http://www.w3.org/2000/svg">
  <symbol id="icon-menu" viewBox="0 0 60 23" fill="none" xmlns="http://www.w3.org/2000/svg">
    <path fill="#1d252d" d="M0 0h60v1H0zM0 11h40v1H0zM0 22h26v1H0z"/>
  </symbol>
  <symbol id="icon-header-logo" viewBox="0 0 114 26" fill="none">
    <path
      d="M96.1508 25.6469L103.251 17.237L96.4113 7.57531H100.124C101.948 7.57531 101.688 8.31359 104.847 12.7753L105.922 14.3161L110.222 7.80001C110.352 7.60742 110.58 7.54321 110.775 7.54321H112.99L106.541 15.1827L114 25.6469H110.515C108.202 25.679 108.626 24.7482 105.564 20.479L103.87 18.1037L98.9519 25.358C98.8216 25.5506 98.6262 25.6148 98.3656 25.6148H96.1508V25.6469Z"
      fill="currentColor" />
    <path
      d="M88.6921 26C86.1841 26 83.5783 25.2939 81.9498 23.3038C80.4189 21.442 79.8652 19.1309 79.8001 16.7877C79.7675 13.8667 80.5166 11.5235 82.0801 9.75808C83.6435 7.99265 85.7932 7.12598 88.5292 7.12598C89.8321 7.12598 91.0046 7.31857 92.0143 7.70375C93.0241 8.08894 93.8058 8.60252 94.4246 9.2766C95.0435 9.95067 95.4995 10.721 95.7926 11.5877C96.0858 12.4544 96.2486 13.4173 96.2812 14.4445C96.2812 14.9902 96.2486 15.5038 96.1509 15.9531C96.1509 16.0173 96.0858 16.0494 96.0532 16.0494H84.5881C84.6532 18.9704 85.1092 21.0568 85.9561 22.3729C86.8029 23.6889 88.2035 24.3309 90.1903 24.3309C92.2423 24.3309 93.8383 23.7531 95.4018 22.5655C95.6623 22.7902 95.9555 23.4001 95.4018 23.8815C93.9686 25.1655 91.1675 26 88.6921 26ZM84.5555 15.1828L91.9818 14.6371C92.0143 12.1976 91.9166 8.18523 88.6269 8.18523C85.1743 8.18523 84.6532 12.5828 84.5555 15.1828Z"
      fill="currentColor" />
    <path
      d="M76.9338 23.5604V12.9678C76.9338 9.34068 75.5332 7.15796 71.9178 7.15796C69.3772 7.15796 66.9669 8.34561 65.2407 10.111C65.2407 8.69869 65.0127 7.54314 63.6121 7.54314H60.6807L60.8435 9.59747V23.5283L60.6807 25.6147H65.4361L65.2732 23.5283V11.074C66.6412 10.0468 67.9115 9.53327 69.7355 9.53327C72.0481 9.53327 72.5041 11.6518 72.5041 13.995V23.1752C72.5041 24.716 72.8624 25.6147 74.1652 25.6147H77.0967L76.9338 23.5604Z"
      fill="currentColor" />
    <path
      d="M56.088 2.31112C56.088 3.59507 55.0131 4.62223 53.7103 4.62223C52.4074 4.62223 51.3326 3.59507 51.3326 2.31112C51.3326 1.02716 52.4074 0 53.7103 0C55.0131 0 56.088 1.02716 56.088 2.31112Z"
      fill="currentColor" />
    <path
      d="M51.4954 7.54308L51.6582 9.59741V23.5283L51.4954 25.6147H56.2508L56.0879 23.5283V9.95048C56.0879 8.57024 55.8274 7.51099 54.4268 7.51099H51.4954V7.54308Z"
      fill="currentColor" />
    <path
      d="M47.0005 23.5604V12.9678C47.0005 9.30858 45.5999 7.15796 41.9845 7.15796C38.9554 7.15796 36.9034 8.6666 35.2748 10.3678C34.6885 8.34561 33.2554 7.15796 30.5194 7.15796C27.9462 7.15796 25.8617 8.34561 24.1679 10.1431V10.111C24.1679 8.69869 23.9399 7.54314 22.5394 7.54314H19.6079L19.7708 9.59747V23.5283L19.6079 25.6147H24.3634L24.2005 23.5283V11.074C25.5359 9.98264 27.1319 9.53327 28.4022 9.53327C30.9102 9.53327 31.1708 12.0691 31.1708 13.995V23.5283L31.0079 25.6147H35.7634L35.6005 23.5283V11.074C36.7405 10.111 38.3365 9.53327 39.8348 9.53327C42.4405 9.53327 42.6034 12.3259 42.6034 13.995V23.1752C42.6034 24.9086 43.0919 25.6147 44.2645 25.6147H47.1959L47.0005 23.5604Z"
      fill="currentColor" />
    <path
      d="M7.5892 26C5.40692 26 2.18235 25.3901 0.228064 24.2988C0.58635 23.4963 1.27035 22.8864 2.24749 23.4C4.00635 24.2988 5.7652 24.716 7.71949 24.716C10.5206 24.716 12.5726 23.1753 12.4423 20.3827C12.1492 14.5407 -0.0325062 13.6741 6.52001e-05 6.64445C0.0326366 1.47655 4.75549 0 9.28292 0C11.4652 0 13.6149 0.417292 15.7321 1.25186C15.3738 2.08643 14.7549 2.79259 13.6801 2.27901C12.1818 1.57284 10.6835 1.25186 9.08749 1.25186C6.31892 1.25186 4.75549 2.7284 4.75549 4.91112C4.72292 10.4963 17.1001 11.3309 17.3281 18.5852C17.4583 23.8815 12.9635 26 7.5892 26Z"
      fill="currentColor" />
  </symbol>
  <symbol id="icon-phone" viewBox="0 0 24 24" fill="none" xmlns="http://www.w3.org/2000/svg">
    <path fill="#000" d="m22.35 17.053-2.804-2.804a1.98 1.98 0 0 0-2.752-.032l-1.566 1.495c-2.41-1.353-5.586-4.53-6.94-6.94l1.495-1.566a1.98 1.98 0 0 0-.032-2.751L6.947 1.65a1.92 1.92 0 0 0-1.47-.575 1.92 1.92 0 0 0-1.42.69L1.21 5.106a.56.56 0 0 0-.134.357c-.024 1.6.579 3.471 1.791 5.56 1.086 1.87 2.612 3.811 4.413 5.612 3.052 3.051 7.576 6.292 11.171 6.291h.088a.56.56 0 0 0 .356-.135l3.34-2.848c.43-.366.668-.857.69-1.42a1.92 1.92 0 0 0-.575-1.47m-.845 2.034-3.181 2.712c-2.686-.073-6.677-2.387-10.25-5.96-3.576-3.576-5.806-7.444-5.873-10.162l2.712-3.181a.8.8 0 0 1 .609-.296.8.8 0 0 1 .63.246L8.956 5.25c.321.322.327.85.014 1.18L7.194 8.29a.56.56 0 0 0-.095.64c1.394 2.778 5.193 6.578 7.971 7.972a.56.56 0 0 0 .64-.096l1.86-1.775a.85.85 0 0 1 1.18.013l2.804 2.804a.8.8 0 0 1 .246.63.8.8 0 0 1-.295.609"/>
  </symbol>
  <symbol id="icon-whatsapp" viewBox="0 0 20 20" fill="none" xmlns="http://www.w3.org/2000/svg">
    <g clip-path="url(#a)">
    <path fill="CurrentColor" fill-rule="evenodd" d="M9.998 0h.005C15.516 0 20 4.486 20 10s-4.484 10-9.997 10A9.9 9.9 0 0 1 4.5 18.348L.657 19.576l1.247-3.715A9.93 9.93 0 0 1 0 10C0 4.485 4.484 0 9.998 0m3.86 15.533c.765-.165 1.722-.73 1.963-1.412s.242-1.264.172-1.387c-.057-.098-.19-.163-.39-.259l-.17-.082c-.293-.147-1.722-.853-1.992-.947-.265-.1-.517-.065-.717.218l-.114.16c-.241.339-.474.666-.667.875-.177.187-.464.211-.705.111l-.09-.037c-.383-.154-1.23-.496-2.255-1.41-.865-.77-1.453-1.728-1.623-2.016-.167-.288-.023-.457.11-.613l.008-.009c.085-.106.169-.195.252-.283q.09-.094.183-.2l.026-.03c.131-.151.21-.24.297-.428.1-.194.03-.394-.042-.542-.05-.103-.352-.838-.612-1.468l-.287-.695c-.194-.464-.341-.482-.635-.494l-.027-.001q-.139-.009-.308-.01c-.382 0-.781.112-1.022.358l-.027.027c-.308.314-.996 1.013-.996 2.407 0 1.397.99 2.748 1.174 2.998l.014.018.062.089c.374.542 2.197 3.182 4.916 4.309 2.298.953 2.98.864 3.503.753" clip-rule="evenodd"/>
    </g>
    <defs>
    <clipPath id="a">
    <path fill="CurrentColor" d="M0 0h20v20H0z"/>
    </clipPath>
    </defs>
  </symbol>
  <symbol id="icon-tg" viewBox="0 0 22 18" fill="none" xmlns="http://www.w3.org/2000/svg">
    <mask id="a" width="22" height="18" x="0" y="0" maskUnits="userSpaceOnUse" style="mask-type:luminance">
    <path fill="#fff" fill-rule="evenodd" d="M0 0h22v18H0z" clip-rule="evenodd"/>
    </mask>
    <g mask="url(#a)"><path fill="CurrentColor" fill-rule="evenodd" d="M22 1.446c-.116.504-.236 1.006-.346 1.51l-2.13 9.788c-.305 1.406-.608 2.811-.921 4.215a2 2 0 0 1-.202.529c-.24.441-.633.608-1.118.459a2.2 2.2 0 0 1-.63-.3c-1.581-1.125-3.154-2.261-4.73-3.394-.057-.041-.115-.08-.183-.127-.052.044-.102.081-.147.123q-1.22 1.141-2.439 2.285c-.242.227-.517.364-.879.343l.088-1.29.197-2.668c.01-.14.047-.284.029-.42-.071-.513.223-.81.581-1.124 2.917-2.553 5.82-5.121 8.726-7.685.043-.038.098-.07.123-.116.046-.086.074-.182.11-.273-.098-.027-.207-.094-.293-.073a1.8 1.8 0 0 0-.507.21q-5.683 3.485-11.36 6.98c-.107.065-.198.1-.334.058C4.029 9.98 2.419 9.492.813 8.994a2 2 0 0 1-.554-.265c-.312-.216-.35-.532-.07-.787.204-.187.452-.353.711-.454 1.353-.528 2.715-1.033 4.075-1.544Q12.722 3.029 20.472.119c.165-.062.344-.103.52-.116.464-.035.809.212.95.656.017.052.039.103.058.154z" clip-rule="evenodd"/>
    </g>
  </symbol>
  <symbol id="icon-vk" viewBox="0 0 24 14" fill="none"
    xmlns="http://www.w3.org/2000/svg">
    <mask id="a" width="24" height="14" x="0" y="0" maskUnits="userSpaceOnUse" style="mask-type:luminance">
    <path fill="#fff" fill-rule="evenodd" d="M0 0h24v14H0z" clip-rule="evenodd"/>
    </mask>
    <g mask="url(#a)">
    <path fill="CurrentColor" fill-rule="evenodd" d="M7.929.973c.172-.388.446-.629.802-.718a7.4 7.4 0 0 1 1.32-.211c1.04-.067 2.082-.084 3.11.143.57.126.855.437.864 1.04.017.98-.018 1.96-.021 2.94-.002.59.014 1.18.022 1.77q0 .03.005.06c.06.341.136.709.483.834.331.12.566-.16.77-.384.953-1.048 1.645-2.275 2.253-3.555.251-.528.465-1.076.688-1.619.201-.488.424-.65.933-.654l3.798-.027c1.012-.007 1.26.356.866 1.315-.455 1.107-1.167 2.05-1.858 3.005-.482.667-.987 1.316-1.459 1.99-.648.927-.61 1.259.17 2.073.826.862 1.665 1.713 2.464 2.6.286.318.5.715.701 1.1.294.56.108.995-.486 1.185a2 2 0 0 1-.573.09q-1.65.035-3.301.047c-.671.005-1.23-.307-1.699-.76-.495-.48-.938-1.014-1.412-1.518-.236-.25-.472-.508-.738-.724-.526-.425-1.013-.327-1.264.314a5.1 5.1 0 0 0-.321 1.478c-.066.916-.324 1.201-1.22 1.21-1.072.01-2.138.01-3.18-.32-1.831-.579-3.282-1.709-4.483-3.21C3.421 8.289 2.105 5.842.893 3.329a47 47 0 0 1-.79-1.737c-.246-.57-.05-.905.554-.921C1.747.642 2.838.636 3.929.624c.597-.006.988.254 1.226.853.644 1.625 1.454 3.162 2.487 4.566.185.252.41.487.654.679.36.283.71.18.857-.259.12-.354.217-.735.225-1.107.02-.968.042-1.943-.046-2.905-.088-.958-.392-1.215-1.403-1.478" clip-rule="evenodd"/>
    </g>
  </symbol>
  <symbol id="icon-youtube" viewBox="0 0 22 16" fill="none" xmlns="http://www.w3.org/2000/svg">
    <path fill="CurrentColor" fill-rule="evenodd" d="M8.382 3.201c1.044.723 2.123 1.515 3.16 2.278 1.047.772 2.11 1.514 3.126 2.26-1.823 1.19-3.653 2.336-5.5 3.508-.26.163-.506.362-.786.488zM.006 4.43v7.207c0 .848-.042 1.65.156 2.243a3.1 3.1 0 0 0 .973 1.407c.436.355.941.614 1.685.676.7.057 1.52.018 2.327.018H16.87c.788 0 1.586.053 2.345-.018 1.341-.125 2.265-.99 2.622-2.118.194-.611.156-1.413.156-2.243V4.394c0-.855.056-1.59-.156-2.243a3.07 3.07 0 0 0-.954-1.424 2.82 2.82 0 0 0-1.668-.694c-.737-.061-1.56-.018-2.327-.018H5.165c-.775 0-1.669-.042-2.38.018a3 3 0 0 0-2.64 2.136c-.19.634-.139 1.447-.139 2.26" clip-rule="evenodd"/>
  </symbol>
  <symbol id="icon-dzen" viewBox="0 0 20 20" fill="none"
    xmlns="http://www.w3.org/2000/svg">
    <g clip-path="url(#a)">
    <path fill="currentColor" d="M18.758 9.594h.004a.4.4 0 0 0 .398-.436A9.186 9.186 0 0 0 10.844.84a.4.4 0 0 0-.436.403c.07 5.87.844 8.27 8.35 8.351m0 .812c-7.506.082-8.28 2.48-8.35 8.35a.4.4 0 0 0 .436.404 9.185 9.185 0 0 0 8.316-8.318.4.4 0 0 0-.402-.437M9.129.841A9.19 9.19 0 0 0 .84 9.159a.4.4 0 0 0 .4.436h.004c7.481-.086 8.254-2.484 8.324-8.35A.4.4 0 0 0 9.13.842m-7.886 9.563c-.125-.014-.222.045-.299.129a.4.4 0 0 0-.105.307 9.19 9.19 0 0 0 8.328 8.319.4.4 0 0 0 .4-.405c-.07-5.866-.843-8.264-8.324-8.35"/>
    </g>
    <defs>
    <clipPath id="a">
    <path fill="#fff" d="M0 0h20v20H0z"/>
    </clipPath>
    </defs>
  </symbol>
  <symbol id="icon-hh" viewBox="0 0 20 20" fill="none" xmlns="http://www.w3.org/2000/svg">
    <g clip-path="url(#a)">
    <path fill="CurrentColor" fill-rule="evenodd" d="M10 20c5.523 0 10-4.477 10-10S15.523 0 10 0 0 4.477 0 10s4.477 10 10 10M5.688 5.487V8.89q.777-.927 1.858-.928.555 0 1.001.211.447.211.673.536.227.329.309.725.083.396.083 1.231v3.637H8.003v-3.276q0-.975-.09-1.237a.8.8 0 0 0-.323-.416 1 1 0 0 0-.581-.156 1.3 1.3 0 0 0-.714.2 1.14 1.14 0 0 0-.462.598q-.147.4-.146 1.182l-.002 3.106H4.079V5.487zm6.336 3.402V5.487h-1.608v8.815h1.607v-3.106q0-.782.145-1.182.147-.4.461-.599t.714-.199q.35 0 .581.156.233.152.324.416.092.262.092 1.237v3.276h1.607v-3.637q0-.836-.083-1.23a1.9 1.9 0 0 0-.309-.726q-.225-.326-.671-.536a2.3 2.3 0 0 0-1.002-.21q-1.08 0-1.858.927" clip-rule="evenodd"/>
    </g>
    <defs>
    <clipPath id="a">
    <path fill="#fff" d="M0 0h20v20H0z"/>
    </clipPath>
    </defs>
  </symbol>
  <symbol id="emblem" viewBox="0 0 110 146" fill="none" xmlns="http://www.w3.org/2000/svg">
    <path fill="#c49a6c" d="M55.01 146C24.675 146 0 121.541 0 91.472V0h110v91.472C110 121.54 85.325 146 54.99 146M1.791 1.775v89.697c0 29.087 23.875 52.734 53.2 52.734 29.324 0 53.199-23.666 53.199-52.734V1.775z"/>
    <path fill="#c49a6c" d="M46.378 32.657a11.5 11.5 0 0 0-2.648-3.74c-1.105-1.02-2.44-1.832-3.906-2.399-1.468-.566-3.087-.85-4.764-.85h-3.334v-3.286h-1.868v3.287h-3.315c-1.677 0-3.296.283-4.783.85-1.486.566-2.82 1.378-3.925 2.398a11 11 0 0 0-2.648 3.74c-.648 1.454-.972 3.079-.972 4.835 0 1.87.305 3.55.934 5.005a10.7 10.7 0 0 0 2.572 3.74c1.105 1.02 2.42 1.794 3.925 2.323 1.486.51 3.144.774 4.897.774h3.315v3.287h1.868v-3.287h3.334c1.753 0 3.41-.264 4.897-.774 1.505-.529 2.84-1.303 3.925-2.323 1.105-1.02 1.963-2.285 2.573-3.74.61-1.454.914-3.135.914-5.005 0-1.756-.324-3.38-.972-4.835M26.543 47.559c-1.562 0-2.992-.227-4.306-.68-1.277-.453-2.382-1.095-3.297-1.945a8.8 8.8 0 0 1-2.153-3.136c-.514-1.246-.781-2.7-.781-4.325 0-1.51.267-2.89.82-4.117.552-1.228 1.295-2.286 2.229-3.155.933-.868 2.058-1.548 3.334-2.04 1.277-.49 2.668-.736 4.135-.736h3.315v20.096h-3.315zm18.254-5.742c-.515 1.228-1.239 2.286-2.134 3.117-.915.85-2.02 1.492-3.297 1.945-1.295.453-2.743.68-4.306.68h-3.334V27.463h3.334c1.467 0 2.858.245 4.135.736a10.5 10.5 0 0 1 3.334 2.04 9.4 9.4 0 0 1 2.23 3.155c.533 1.227.82 2.606.82 4.117 0 1.624-.268 3.079-.782 4.325M87.23 83.615v11.257H71.244V83.615h-1.81v28.275h1.81V96.647H87.23v15.243h1.791V83.615z"/>
    <path fill="#c49a6c" d="M5.64 5.59v85.882c0 26.971 22.142 48.918 49.351 48.918 27.21 0 49.35-21.947 49.35-48.918V5.59zm50.247 43.045c17.91-.567 22.96 8.82 24.027 11.502-3.449 3.022-4.973 6.177-5.507 7.499h-3.81c-8.937 0-14.73-5.723-14.73-14.6v-4.401zM7.45 7.385h46.664v45.67c0 8.858-5.793 14.6-14.73 14.6H7.452zm46.664 131.211c-18.083-.34-33.726-10.728-41.482-25.763 2.135.378 4.06.907 5.793 1.398 2.382.68 4.535 1.284 6.612 1.284 2.458 0 4.802-.85 7.336-3.437 4.63-4.779 9.698-3.173 15.052-1.473 2.192.698 4.44 1.397 6.689 1.643v26.348m0-28.124c-1.982-.245-4.002-.887-6.136-1.548-5.392-1.7-11.49-3.646-16.901 1.926-3.906 4.023-7.183 3.098-12.157 1.681-2.095-.604-4.477-1.246-7.24-1.643a45.4 45.4 0 0 1-2.801-7.914c3.753.189 6.802 1.058 9.546 1.851 2.382.68 4.535 1.284 6.612 1.284 2.458 0 4.802-.85 7.336-3.437 4.63-4.779 9.698-3.173 15.052-1.473 2.192.698 4.44 1.397 6.689 1.643zm0-9.424c-1.982-.246-4.002-.888-6.136-1.55-5.392-1.7-11.49-3.645-16.901 1.946-3.906 4.023-7.183 3.098-12.157 1.681-2.953-.85-6.268-1.775-10.46-1.926-.477-2.267-.8-4.59-.934-6.951 4.382.038 7.831 1.02 10.899 1.87 2.382.68 4.535 1.284 6.612 1.284 2.458 0 4.802-.85 7.336-3.437 4.63-4.779 9.698-3.173 15.052-1.474 2.192.7 4.44 1.398 6.689 1.644zm0-8.708c-1.982-.245-4.002-.887-6.136-1.548-5.392-1.7-11.49-3.646-16.901 1.926-3.906 4.023-7.183 3.098-12.157 1.681-3.182-.906-6.802-1.926-11.451-1.945 0-.321-.02-.661-.02-.982V69.41h31.936c8.936 0 14.729 5.723 14.729 14.6zm-8.803-23.817c4.725-1.53 8.155-4.93 9.698-9.613 1.544 4.684 4.973 8.083 9.699 9.613-4.726 1.53-8.156 4.93-9.699 9.614-1.543-4.684-4.973-8.084-9.698-9.614m57.257 22.949c0 25.687-20.845 46.633-46.663 47.124V84.011c0-8.877 5.773-14.6 14.729-14.6h31.934zm0-23.836H76.351c1.448-3.362 7.298-12.995 26.218-12.617zm0-14.393c-10.232-.189-16.92 2.531-21.188 5.723-.495-1.095-1.448-2.738-3.01-4.457v-9.765c7.469-.416 13.414-6.535 13.414-14.052v-10.18h-.896a14.24 14.24 0 0 0-12.518 7.441V20.87c0-3.91-3.22-7.101-7.165-7.101h-.895v6.081c0 3.608 2.743 6.611 6.268 7.045v25.876c-3.525-3.003-9.889-6.252-20.654-5.93V7.384h46.663v45.877zM78.466 42.97v-8.367c0-6.479 5.087-11.824 11.528-12.277v8.367c0 6.478-5.088 11.823-11.528 12.277M76.56 20.87v4.231c-2.534-.415-4.477-2.606-4.477-5.25V15.62c2.534.434 4.477 2.625 4.477 5.25"/>
  </symbol>
  <symbol id="label" viewBox="0 0 24 24" fill="none" xmlns="http://www.w3.org/2000/svg">
    <path fill="#c49a6c" d="M17.746 3.08a8.16 8.16 0 0 0-6-2.326 8.28 8.28 0 0 0-7.987 7.852 8.2 8.2 0 0 0 2.13 5.933 28.5 28.5 0 0 1 5.278 7.919l.144.337a.75.75 0 0 0 1.378 0l.32-.75a26.1 26.1 0 0 1 5.041-7.443 8.245 8.245 0 0 0-.304-11.525zM12 12A3 3 0 1 1 12 6 3 3 0 0 1 12 12"/>
  </symbol>
  <symbol id="arrow-right" viewBox="0 0 8 12" fill="none" xmlns="http://www.w3.org/2000/svg">
    <path fill="#c49a6c" d="M6.926 11.73a.25.25 0 0 0 .152-.23V.5a.25.25 0 0 0-.424-.18L.997 5.82a.25.25 0 0 0 0 .36l5.657 5.5c.072.07.18.09.272.05"/>
  </symbol>
  <symbol id="arrow-left" viewBox="0 0 8 12" fill="none" xmlns="http://www.w3.org/2000/svg">
    <path fill="#c49a6c" d="M1.074.27A.25.25 0 0 0 .922.5v11a.25.25 0 0 0 .424.18l5.657-5.5a.25.25 0 0 0 0-.36L1.346.32a.25.25 0 0 0-.272-.05"/>
  </symbol>
  <symbol id="wv" viewBox="0 0 38 25" fill="none" xmlns="http://www.w3.org/2000/svg">
    <path fill="#c49a6c" d="M30.32.188c-.937 2.343-3.203 3.742-7.789 3.43a62 62 0 0 1-3.25-.524C9.977.188.825.187.825 6c2.616-2.906 9.198-2.406 17.581-.312 9.125 2.28 18.89 3.218 18.89-4.047-1.437 1.507-4.171 2.234-7.546 2.375.781-.813.977-2.086.57-3.828m-19.836 6.46C4.957 6.625.825 7.906.825 11.813c2.616-2.907 9.198-2.72 17.581-.626 9.125 2.282 18.89 3.532 18.89-3.734-2.765 2.906-10.171 3.094-18.015.625-2.945-.93-6.093-1.422-8.797-1.43m-1.867 5.438C4.052 12.07.825 13.305.825 17.625c2.616-2.906 9.558-3.46 17.581-1.453 9.453 2.36 18.89 2.906 18.89-2.906-2.765 2.906-10.32 1.765-18.015.312-3.781-.586-7.539-1.492-10.664-1.492m0 5.805C4.052 17.883.825 19.125.825 23.438c1.487-1.649 4.337-2.368 8.01-2.407-.812.813-1.007 2.102-.6 3.86 1.085-2.72 4.062-4.047 10.179-2.907 9.578 1.782 18.883 2.907 18.883-2.906-2.766 2.906-10.32 1.453-18.016 0-3.781-.594-7.539-1.18-10.664-1.187"/>
  </symbol>
  <symbol id="ch" viewBox="0 0 40 40" fill="none" xmlns="http://www.w3.org/2000/svg">
    <path fill="#c49a6c" d="M24.943 28.521a1.391 1.391 0 0 0 2.69.653l.442-1.265zM33.138 10.728a2.558 2.558 0 1 0 0-5.116 2.558 2.558 0 0 0 0 5.116M6.786 16.648a2.558 2.558 0 1 0 0-5.116 2.558 2.558 0 0 0 0 5.116"/>
    <path fill="#c49a6c" d="M39.974 22.49a1.39 1.39 0 0 0-1.632-1.099l-1.706.333c.544-.374.84-.974.84-1.591l.019-6.584a1.943 1.943 0 0 0-1.955-1.946l-1.785.013a1.94 1.94 0 0 0-1.927 1.971l.013.848 2.498-1.744-2.971 3.328-5.215-.504a1.16 1.16 0 0 0-.224 2.307l5.8.561c.37.036.732-.107.977-.382l2.9-3.25-1.968 4.018c-.2.408-.365.858-.85.966l-4.31.752c-.907.158-1.078.922-1.244 1.395l-.63 1.802-12.611 2.463c.126 1.08-.469 1.707-.784 2.102l-.833 1.048 6.464-1.262v4.006h-2.562a1.16 1.16 0 0 0 0 2.318h7.444a1.16 1.16 0 0 0 0-2.318h-2.563v-4.46l6.99-1.364v-.967c0-.416-.09-1.21.705-1.712l3.872-2.426-3.134 3.158c-.258.26-.404.613-.404.98v6.532a1.391 1.391 0 1 0 2.782 0v-5.96l2.73-2.75-1.305 2.12 5.48-1.07a1.39 1.39 0 0 0 1.099-1.632M14.259 22.666a1.16 1.16 0 0 0-1.246-1.065l-4.448.349-2.98-3.339 2.498 1.744.014-.847a1.94 1.94 0 0 0-1.928-1.971c-1.969-.014-1.924-.028-2.196.029-.688.09-1.547.836-1.544 1.904l.018 6.583C2.45 27.085 3.28 28 4.55 27.981l-3.39.673c-.73.142-1.248.823-1.146 1.56.11.798.865 1.33 1.645 1.177l2.976-.582 1.955-2.456-1.542-.287 3.27-.01-3.219 4.046c-.478.601-.409 1.49.188 1.975a1.39 1.39 0 0 0 1.966-.214l5.044-6.34c.714-.898.092-2.258-1.088-2.258h-.005l-6.164.018 1.436-.276s-.313-.57-2.157-4.335l2.9 3.25c.241.27.594.412.956.383l5.02-.393a1.16 1.16 0 0 0 1.065-1.246"/>
  </symbol>

</svg>
